<svg id="visual" viewBox="0 0 2000 1000" width="2000" height="1000" xmlns="http://www.w3.org/2000/svg" xmlns:xlink="http://www.w3.org/1999/xlink" version="1.1"><path d="M0 955L41.7 930C83.3 905 166.7 855 250 853.8C333.3 852.7 416.7 900.3 500 919.2C583.3 938 666.7 928 750 918.8C833.3 909.7 916.7 901.3 1000 877.5C1083.3 853.7 1166.7 814.3 1250 815.2C1333.3 816 1416.7 857 1500 882.2C1583.3 907.3 1666.7 916.7 1750 884.2C1833.3 851.7 1916.7 777.3 1958.3 740.2L2000 703L2000 1001L1958.3 1001C1916.7 1001 1833.3 1001 1750 1001C1666.7 1001 1583.3 1001 1500 1001C1416.7 1001 1333.3 1001 1250 1001C1166.7 1001 1083.3 1001 1000 1001C916.7 1001 833.3 1001 750 1001C666.7 1001 583.3 1001 500 1001C416.7 1001 333.3 1001 250 1001C166.7 1001 83.3 1001 41.7 1001L0 1001Z" fill="#a7c3ec" stroke-linecap="round" stroke-linejoin="miter"></path></svg>